<svg version="1.0" xmlns="http://www.w3.org/2000/svg" width="481.333" height="481.333" viewBox="0 0 361 361" preserveAspectRatio="xMidYMid meet"><path d="M219.9 31.7c-.5 1.6-2.6 7.1-4.5 12.3-2 5.2-4 10.3-4.5 11.2-.5 1-.9 2.2-.9 2.8 0 .6-1.5 4.9-3.4 9.8-1.9 4.8-6.4 16.8-10 26.7-3.7 9.9-7.3 19.6-8.1 21.5-1.2 3-17.3 46.2-24 64.5-1.2 3.3-10.8 28.9-21.3 57-10.4 28-21.3 57.3-24.2 65-2.9 7.7-6.5 17.5-8.1 21.8L108 332l17.2-.2 17.1-.3 2.7-7.5c4.1-11.3 32.8-88.4 33.9-91.1.6-1.3 3.9-10.3 7.5-19.9 7.3-19.9 20.8-56.1 45.6-122.5 9.5-25.3 18.5-49.5 20.1-53.8l2.8-7.7H221l-1.1 2.7zM91.8 98.3C41.9 123.2 1.1 143.8 1 144.1c0 .4 24.6 13 54.7 27.9 30.2 15 58.2 29 62.4 31.1l7.7 3.8 3.2-8.7c1.7-4.8 4.3-11.6 5.6-15.1 1.4-3.5 2.3-6.5 2.1-6.7-.2-.2-14.4-7.4-31.5-16C88 151.9 74 144.6 74 144.2c.1-.4 20.9-11.1 46.3-23.7l46.1-23.1 5.3-13.9c6.7-17.8 11.3-30.5 11-30.4-.1 0-41 20.4-90.9 45.2zm140.8 62.5c-1.3 3.7-3.6 9.8-4.9 13.7-1.4 3.8-2.8 7.8-3.2 8.7-.5 1.4 4.8 4.4 30.9 17.5 17.4 8.7 31.6 16 31.6 16.3 0 .3-19.6 10.4-43.6 22.5s-44.8 22.7-46.4 23.7c-1.5.9-3.1 2.9-3.4 4.5-.4 1.5-1.4 4.1-2.1 5.8-4 8.7-13.1 33.5-12.4 33.5.5 0 40.4-19.6 88.6-43.6 48.3-24 88.8-44 90.1-44.5 1.2-.5 2.2-1.2 2.2-1.6 0-.5-28.1-14.9-62.4-32l-62.5-31.2-2.5 6.7z" fill="#000" stroke="none"/></svg>