<svg width="14" height="26" viewBox="0 0 14 26" version="1.1" xmlns="http://www.w3.org/2000/svg"><g id="WWC-Site-Working" stroke="none" stroke-width="1" fill="none" fill-rule="evenodd"><g id="WWC-Homepage-v1" transform="translate(-1390 -379)" fill="#dda301" fill-rule="nonzero"><g id="Group-12" transform="translate(1388 244)"><g id="Hand-Icon" transform="matrix(0 -1 -1 0 15.551 160.5)"><path d="M16.682 7.509H9.879a.424.424 0 1 1 0-.848h6.758c.13-.035.553-.204.555-.929 0-.533-.153-.692-.22-.712l-7.788.028h-.001A.424.424 0 0 1 9.18 4.2l7.81-.028a.95.95 0 0 1 .635.284c.276.275.415.705.414 1.278-.003 1.23-.844 1.696-1.289 1.769a.418.418 0 0 1-.07.006z" id="Path"/><path d="M16.061 10.197a1.71 1.71 0 0 1-.152-.006h-4.54a.424.424 0 1 1 0-.848h4.56c.016 0 .031 0 .047.003.127.012.969.002.969-.79 0-1.047-.35-1.048-.367-1.053a.415.415 0 0 1-.334-.488.433.433 0 0 1 .5-.343c.046.008 1.092.21 1.048 1.906-.016.638-.289 1.008-.515 1.206-.412.36-.94.413-1.216.413z" id="Path"/><path d="M15.903 12.672a.424.424 0 0 1-.088-.84c.379-.08.566-.584.521-1.004-.02-.19-.117-.632-.58-.632a.424.424 0 1 1 0-.848c.763 0 1.335.559 1.424 1.39.083.792-.304 1.735-1.187 1.924a.428.428 0 0 1-.09.01z" id="Path"/><path d="M11.424 12.646c-.822-.094-1.422-.79-1.422-1.71 0-.294.04-.54.108-.745 0 0-1.698.124-1.698-1.835 0-.394.098-.748.265-1.03-.428-.248-.761-.754-.761-1.55 0-.286.062-.55.175-.78l-6.228-.298C.764 4.545.273 3.797.273 3.123c0-.524.265-1.419 2.043-1.53 3.171-.069 9.208-.208 10.014-.26.213-.193.409-.42.655-.602.258-.192 4.937-.474 4.984-.46.099.03 2.44.744 4.262 1.943.193.118 2.162.062 2.317.108.618.185.62 1.043.606 1.302v6.864c.016.153.042.638-.225.974a.81.81 0 0 1-.567.305c-.306.03-2.286.072-2.426.112-2.611.745-8.018 1.05-10.512.767zm-.198-2.455c-.25 0-.376.25-.376.745 0 .403.201.812.647.865 1.815.216 7.155.134 10.206-.737.233-.067 2.302-.113 2.576-.14.025-.035.012-7.7-.022-7.792-.105-.003-2.09.06-2.492-.21-1.646-1.103-3.576-1.691-3.972-1.817-1.843.098-3.86.237-4.303.314-.567.527-2.18 1.972-2.48 2.245.325.267.742.531 1.036.531.546 0 2-.86 2.86-1.471a.424.424 0 0 1 .564.066c.008.01.786.891 1.517 1.15.312.111.776.283.776.283a.423.423 0 0 1 .274.44c-.002.025-.228 2.519 1.37 3.285a.424.424 0 1 1-.366.765c-1.743-.836-1.88-2.972-1.864-3.802l-.473-.172c-.647-.23-1.27-.779-1.61-1.115-.694.47-2.201 1.419-3.048 1.419-.897 0-1.863-.974-1.97-1.085a.423.423 0 0 1 .018-.607c.426-.392.83-.753 1.234-1.115l.019-.017c-2.592.082-8.682.215-8.995.221-.812.051-1.232.281-1.232.683 0 .375.322.655.842.732l7.24.346a.424.424 0 0 1 .067.838c-.307.064-.505.353-.505.737 0 .546.226.885.59.885h.42a.424.424 0 1 1 0 .848c-.283 0-.513.38-.513.847 0 .556.276.987.514.987h1.451a.424.424 0 1 1 0 .848z" id="Shape"/></g></g></g></g></svg>