<svg id="Capa_1" data-name="Capa 1" xmlns="http://www.w3.org/2000/svg" xmlns:xlink="http://www.w3.org/1999/xlink" viewBox="0 0 100 100"><defs><style>.cls-1{fill:none;}.cls-2{font-size:119.92px;font-family:BodoniMT, Bodoni MT;}.cls-3{clip-path:url(#clip-path);}</style><clipPath id="clip-path"><polyline class="cls-1" points="96 35 68.48 35 68.48 7.48 96 7.48 96 35"/></clipPath></defs><title>Icon Cargraf FEB 2020</title><text class="cls-2" transform="translate(-0.44 89.18)">C</text><g class="cls-3"><path d="M68.42,20.84h2.11a11.9,11.9,0,0,1,3.42-8,11.7,11.7,0,0,1,8-3.48V7.25h.63V9.37a11.75,11.75,0,0,1,7.9,3.45,11.92,11.92,0,0,1,3.46,8c.51,0,1,0,1.55,0s.51.17.38.59H94c-.83,6.86-4.61,10.7-11.44,11.57v1.88l-.62,0v-2A11.75,11.75,0,0,1,74,29.48a11.9,11.9,0,0,1-3.47-8H68.42Zm20.66.64v-.65h4.19A11,11,0,0,0,82.54,10v4.22H81.9V10A11,11,0,0,0,71.17,20.83h4.19v.65H71.17c0,6.36,5.8,11,10.73,10.76V28.07h.64v4.22c6.55-.09,10.92-6,10.69-10.81Z"/><path d="M75.34,21.46h6.57v6.62a12.82,12.82,0,0,1-1.76-.39,6.67,6.67,0,0,1-4.69-5.61C75.43,21.88,75.38,21.67,75.34,21.46Z"/><path d="M81.91,14.22v6.62H75.34a7.39,7.39,0,0,1,2.27-4.78A7.45,7.45,0,0,1,81.91,14.22Z"/><path d="M89.1,20.84H82.53V14.22a7.24,7.24,0,0,1,4.47,2,6.81,6.81,0,0,1,2,4.12A4.15,4.15,0,0,0,89.1,20.84Z"/><path d="M82.53,28.08V21.47H89.1a15.31,15.31,0,0,1-.62,2.35A6.57,6.57,0,0,1,83,28,4.15,4.15,0,0,0,82.53,28.08Z"/></g></svg>