<?xml version="1.0" encoding="utf-8"?>
<!-- Generator: Adobe Illustrator 23.0.3, SVG Export Plug-In . SVG Version: 6.00 Build 0)  -->
<svg version="1.1" id="Capa_1" xmlns="http://www.w3.org/2000/svg" xmlns:xlink="http://www.w3.org/1999/xlink" x="0px" y="0px"
	 viewBox="0 0 1148.2 378.6" style="enable-background:new 0 0 1148.2 378.6;" xml:space="preserve">
<style type="text/css">
	.st0{fill:#FFFFFF;}
	.st1{fill:#01DD9D;}
</style>
<g id="WWC-Teachout">
	<g id="Desktop-HD" transform="translate(-477 -80)">
		<g id="Group-2" transform="translate(477.824 80.5)">
			<path id="Rectangle-Copy" class="st0" d="M668.9,199.1v170.8h471V199.1L668.9,199.1L668.9,199.1z M661.4,191.6h486v181.8
				c0,2.2-1.8,4-4,4h-482L661.4,191.6L661.4,191.6z"/>
			<path id="Rectangle-5-Copy-2" class="st1" d="M854.9,217.1v21.6h29.6v-21.6H854.9L854.9,217.1z M855.3,214.5h31.8v26.8h-34.8
				v-23.7C852.3,215.9,853.6,214.5,855.3,214.5z"/>
			<path id="Rectangle-5-Copy-5" class="st1" d="M854.9,298.2h29.6v-57h-29.6V298.2L854.9,298.2z M852.3,238.7h34.8v62.1h-31.8
				c-1.7,0-3-1.4-3-3V238.7z"/>
			<path id="Rectangle-5-Copy-3" class="st1" d="M918.4,217.1v21.6h29.6v-21.6H918.4z M915.8,214.5h31.8c1.7,0,3,1.4,3,3v23.7h-34.8
				V214.5L915.8,214.5z"/>
			<path id="Rectangle-5-Copy-6" class="st1" d="M918.4,298.2h29.6v-57h-29.6V298.2z M915.8,238.7h34.8v59.1c0,1.7-1.4,3-3,3h-31.8
				V238.7L915.8,238.7z"/>
			<path id="Rectangle-5-Copy-4" class="st1" d="M886.6,238.7h29.6v-21.6h-29.6V238.7L886.6,238.7z M884,214.5h34.8v26.8H884V214.5
				L884,214.5z"/>
			<path id="Rectangle-5-Copy-7" class="st1" d="M886.6,241.3v57h29.6v-57H886.6L886.6,241.3z M884,238.7h34.8v62.1H884V238.7
				L884,238.7z"/>
			<path id="Rectangle-5-Copy-2_1_" class="st1" d="M710.7,217.1v21.6h29.6v-21.6H710.7L710.7,217.1z M711.2,214.5h31.8v26.8h-34.8
				v-23.7C708.1,215.9,709.5,214.5,711.2,214.5z"/>
			<path id="Rectangle-5-Copy-5_1_" class="st1" d="M710.7,298.2h29.6v-57h-29.6V298.2L710.7,298.2z M708.1,238.7h34.8v62.1h-31.8
				c-1.7,0-3-1.4-3-3V238.7z"/>
			<path id="Rectangle-5-Copy-3_1_" class="st1" d="M774.3,217.1v21.6h29.6v-21.6H774.3z M771.7,214.5h31.8c1.7,0,3,1.4,3,3v23.7
				h-34.8L771.7,214.5L771.7,214.5z"/>
			<path id="Rectangle-5-Copy-6_1_" class="st1" d="M774.3,298.2h29.6v-57h-29.6V298.2z M771.7,238.7h34.8v59.1c0,1.7-1.4,3-3,3
				h-31.8L771.7,238.7L771.7,238.7z"/>
			<path id="Rectangle-5-Copy-4_1_" class="st1" d="M742.4,238.7H772v-21.6h-29.6V238.7L742.4,238.7z M739.8,214.5h34.8v26.8h-34.8
				V214.5L739.8,214.5z"/>
			<path id="Rectangle-5-Copy-7_1_" class="st1" d="M742.4,241.3v57H772v-57H742.4L742.4,241.3z M739.8,238.7h34.8v62.1h-34.8V238.7
				L739.8,238.7z"/>
			<path id="Rectangle-7-Copy-2" class="st0" d="M990.3,367h145.1V197.7H990.3V367z M978.4,191.6h169v181.5h-169V191.6z"/>
			<path id="Rectangle-7-Copy-3" class="st0" d="M1147.4,367L1147.4,367V197.7l0,0V367L1147.4,367z M1147.4,191.6L1147.4,191.6
				v181.5l0,0V191.6L1147.4,191.6z"/>
		</g>
	</g>
</g>
<g>
	<g>
		<path class="st0" d="M1128.5,334.2h-23.6c-1.1,0-2,0.9-2,2v23.6c0,1.1,0.9,2,2,2h23.6c1.1,0,2-0.9,2-2v-23.6
			C1130.4,335,1129.6,334.2,1128.5,334.2z M1126.5,357.8h-19.7v-19.7h19.7V357.8z"/>
	</g>
</g>
<g>
	<g>
		<path class="st0" d="M1118.6,336.1v5.9h-3.9v-5.9h-3.9v7.9c0,1.1,0.9,2,2,2h7.9c1.1,0,2-0.9,2-2v-7.9H1118.6z"/>
	</g>
</g>
<g>
	<g>
		<path class="st0" d="M1104.8,334.2h-23.6c-1.1,0-2,0.9-2,2v23.6c0,1.1,0.9,2,2,2h23.6c1.1,0,2-0.9,2-2v-23.6
			C1106.8,335,1105.9,334.2,1104.8,334.2z M1102.9,357.8h-19.7v-19.7h19.7V357.8z"/>
	</g>
</g>
<g>
	<g>
		<path class="st0" d="M1095,336.1v5.9h-3.9v-5.9h-3.9v7.9c0,1.1,0.9,2,2,2h7.9c1.1,0,2-0.9,2-2v-7.9H1095z"/>
	</g>
</g>
<g>
	<g>
		<path class="st0" d="M1128.5,310.5h-23.6c-1.1,0-2,0.9-2,2v23.6c0,1.1,0.9,2,2,2h23.6c1.1,0,2-0.9,2-2v-23.6
			C1130.4,311.4,1129.6,310.5,1128.5,310.5z M1126.5,334.2h-19.7v-19.7h19.7V334.2z"/>
	</g>
</g>
<g>
	<g>
		<path class="st0" d="M1118.6,312.5v5.9h-3.9v-5.9h-3.9v7.9c0,1.1,0.9,2,2,2h7.9c1.1,0,2-0.9,2-2v-7.9H1118.6z"/>
	</g>
</g>
<g>
	<g>
		<rect x="997.3" y="219.6" class="st0" width="133.1" height="5.5"/>
	</g>
</g>
<g>
	<g>
		<rect x="997.3" y="230.7" class="st0" width="133.1" height="5.5"/>
	</g>
</g>
<g>
	<g>
		<rect x="997.3" y="208.5" class="st0" width="133.1" height="5.5"/>
	</g>
</g>
<g>
	<path class="st1" d="M1010.3,246.3h5.2l9.5,16.7v-16.7h4.7v23.9h-5l-9.7-17v17h-4.7V246.3z"/>
	<path class="st1" d="M1041.3,246.3h5.7l8.5,23.9h-5.4l-1.6-4.9h-8.8l-1.6,4.9h-5.2L1041.3,246.3z M1040.9,261.2h6.1l-3-9.4
		L1040.9,261.2z"/>
	<path class="st1" d="M1070,246.3h5.2l-8.2,23.9h-4.7l-8.1-23.9h5.3l5.2,18.2L1070,246.3z"/>
	<path class="st1" d="M1095.9,250.5h-12.7v5.1h11.6v4.2h-11.6v6.2h13.3v4.3h-18.1v-23.9h17.6V250.5z"/>
	<path class="st1" d="M1112.5,263c0,0.9,0.2,1.7,0.5,2.3c0.6,1.1,1.6,1.7,3.1,1.7c0.9,0,1.7-0.3,2.4-0.9c0.7-0.6,1-1.5,1-2.7
		c0-1.5-0.6-2.6-1.9-3.1c-0.7-0.3-1.8-0.4-3.4-0.4v-3.3c1.5,0,2.5-0.2,3.1-0.4c1-0.5,1.5-1.4,1.5-2.8c0-0.9-0.3-1.6-0.8-2.2
		c-0.5-0.6-1.3-0.8-2.2-0.8c-1.1,0-1.9,0.3-2.4,1c-0.5,0.7-0.8,1.6-0.7,2.8h-4.3c0-1.2,0.2-2.3,0.6-3.3c0.4-0.9,1-1.8,1.8-2.6
		c0.6-0.6,1.3-1,2.2-1.3c0.8-0.3,1.9-0.4,3.1-0.4c2.3,0,4.1,0.6,5.4,1.7s2.1,2.7,2.1,4.7c0,1.4-0.4,2.6-1.2,3.5
		c-0.5,0.6-1.1,1-1.6,1.2c0.4,0,1,0.4,1.8,1.1c1.2,1.1,1.8,2.6,1.8,4.5c0,2-0.7,3.7-2.1,5.3c-1.4,1.5-3.4,2.3-6.1,2.3
		c-3.3,0-5.6-1.1-6.9-3.3c-0.7-1.2-1.1-2.7-1.1-4.5H1112.5z"/>
</g>
</svg>
