<svg id="Capa_1" data-name="Capa 1" xmlns="http://www.w3.org/2000/svg" width="18" height="19.6" viewBox="0 0 18 19.6"><defs><style>.cls-1{fill:#ff4181;}.cls-2{fill:#ffce47;}.cls-3{fill:#4eb9ff;}.cls-4{fill:#fff;}</style></defs><title>taller cargraf</title><path class="cls-1" d="M11.1,13.1a3.6,3.6,0,0,0,7.2,0c0-2.3-3.6-8.2-3.6-8.2S11.1,10.8,11.1,13.1Z" transform="translate(-0.7 -1.5)"/><path class="cls-2" d="M6.1,17.1a3.6,3.6,0,0,0,7.2,0c0-2.3-3.6-8.2-3.6-8.2S6.1,14.8,6.1,17.1Z" transform="translate(-0.7 -1.5)"/><path class="cls-3" d="M1.1,10.1a3.7,3.7,0,0,0,7.3,0c0-2.3-3.7-8.2-3.7-8.2S1.1,7.8,1.1,10.1Z" transform="translate(-0.7 -1.5)"/><path class="cls-4" d="M16.9,13.1a.4.4,0,1,0-.8,0,1.3,1.3,0,0,1-1.4,1.3.4.4,0,0,0-.4.4.4.4,0,0,0,.4.4A2.1,2.1,0,0,0,16.9,13.1Z" transform="translate(-0.7 -1.5)"/><path class="cls-4" d="M15.1,4.7c-.1-.2-.2-.2-.4-.2s-.2,0-.3.2-.9,1.5-1.8,3.2a.4.4,0,0,0,.1.6.5.5,0,0,0,.6-.2c.5-1.1,1.1-2,1.4-2.6,1.2,1.9,3.2,5.8,3.2,7.4a3.2,3.2,0,0,1-3.2,3.2,2.7,2.7,0,0,1-1.2-.3.5.5,0,0,0-.6.2.7.7,0,0,0,.3.6,4,4,0,0,0,5.5-3.7C18.7,10.7,15.2,4.9,15.1,4.7Z" transform="translate(-0.7 -1.5)"/><path class="cls-4" d="M11.9,17.1a.4.4,0,1,0-.8,0,1.3,1.3,0,0,1-1.4,1.3.4.4,0,0,0-.4.4.4.4,0,0,0,.4.4A2.1,2.1,0,0,0,11.9,17.1Z" transform="translate(-0.7 -1.5)"/><path class="cls-4" d="M10.1,8.7c-.1-.2-.2-.2-.4-.2s-.2,0-.3.2-.9,1.5-1.8,3.2c-.1.2-.1.5.1.6a.5.5,0,0,0,.6-.2c.5-1.1,1.1-2,1.4-2.6,1.2,1.9,3.2,5.8,3.2,7.4a3.2,3.2,0,0,1-3.2,3.2A3.1,3.1,0,0,1,8.4,20a.4.4,0,1,0-.3.7,3.2,3.2,0,0,0,1.6.4,4,4,0,0,0,4-4C13.7,14.7,10.2,8.9,10.1,8.7Z" transform="translate(-0.7 -1.5)"/><path class="cls-4" d="M5.1,1.7c-.1-.2-.2-.2-.4-.2s-.2,0-.3.2S.7,7.7.7,10.1a4,4,0,0,0,4,4,4,4,0,0,0,4.1-4C8.8,7.7,5.2,1.9,5.1,1.7ZM4.7,13.3a3.2,3.2,0,0,1-3.1-3.2c0-1.6,2-5.5,3.1-7.4,1.2,1.9,3.2,5.8,3.2,7.4A3.2,3.2,0,0,1,4.7,13.3Z" transform="translate(-0.7 -1.5)"/><path class="cls-4" d="M6.5,9.7a.4.4,0,0,0-.4.4,1.3,1.3,0,0,1-1.4,1.3.4.4,0,0,0-.4.4.4.4,0,0,0,.4.4,2.1,2.1,0,0,0,2.2-2.1A.4.4,0,0,0,6.5,9.7Z" transform="translate(-0.7 -1.5)"/></svg>