<svg xmlns="http://www.w3.org/2000/svg" viewBox="0 0 199.66 86.88"><defs><style>.cls-1{fill:none;stroke:#010101;stroke-linecap:round;stroke-linejoin:round;stroke-width:2px;}</style></defs><title>taller</title><g id="Capa_2" data-name="Capa 2"><g id="Capa_1-2" data-name="Capa 1"><rect class="cls-1" x="18.42" y="34.51" width="168.23" height="51.15" rx="3.84"/><path class="cls-1" d="M54.47,85.77v-54l4-3.75H97.08"/><line class="cls-1" x1="143.32" y1="34.73" x2="143.32" y2="85.88"/><polyline class="cls-1" points="18.53 38.37 112.89 38.37 119.29 43.44 128.33 43.44"/><line class="cls-1" x1="128.33" y1="38.37" x2="186.64" y2="38.37"/><line class="cls-1" x1="186.64" y1="59.01" x2="143.32" y2="59.01"/><line class="cls-1" x1="186.64" y1="63.85" x2="18.53" y2="63.85"/><polyline class="cls-1" points="18.42 42.56 15.55 40.91 15.55 31.65 31.43 31.65 39.17 34.51"/><path class="cls-1" d="M15.55,37.1,7.06,32.28a2.65,2.65,0,0,0-2.63,0L2,33.74,1,36.06l12.79,8.15v2.43l4.63,3.17"/><line class="cls-1" x1="18.42" y1="44.56" x2="13.79" y2="44.56"/><polyline class="cls-1" points="19.74 28.01 35.28 28.01 43.66 31.32"/><line class="cls-1" x1="40.81" y1="30.19" x2="56.34" y2="30.19"/><line class="cls-1" x1="54.36" y1="31.65" x2="95.59" y2="31.65"/><path class="cls-1" d="M91.66,34.51a8.92,8.92,0,0,0,5.23-3.6c1.76-2.87,4.64-8,6.39-8.08,1-.06,19.69,0,24.17,0a.89.89,0,0,1,.88.89h0V85.88"/><path class="cls-1" d="M125.52,19.49l1.73,0a1.09,1.09,0,0,1,1.08,1.09v3.22"/><path class="cls-1" d="M95,33s2.56-6.12,3.44-7.88,2.41-5.56,4.44-5.56c.6,0,10.41-.1,18.09-.05"/><path class="cls-1" d="M128.44,29.55h50.09a3,3,0,0,1,2.15.93l4.63,5"/><path class="cls-1" d="M183.62,33.63h9.8a3.34,3.34,0,0,1,2.36,1l1.9,1.9a3.34,3.34,0,0,1,1,2.36V53.25h-12"/><line class="cls-1" x1="198.66" y1="46.25" x2="186.64" y2="46.25"/><line class="cls-1" x1="120.94" y1="20.84" x2="120.94" y2="18.2"/><line class="cls-1" x1="125.57" y1="20.84" x2="125.57" y2="18.2"/><path class="cls-1" d="M15.55,32.92l-4.29-3.3a.74.74,0,0,1-.07-1.11l.94-.94L14.3,26a1.75,1.75,0,0,1,1.89-.09l8.07,4.72"/><rect class="cls-1" x="111.02" y="1" width="20.5" height="15.5" rx="1.32"/><rect class="cls-1" x="131.96" y="3.2" width="4.63" height="12.13"/></g></g></svg>