<svg id="Layer_1" data-name="Layer 1" xmlns="http://www.w3.org/2000/svg" viewBox="0 0 241.84 322.82"><defs><style>.cls-1{fill:none}.cls-1,.cls-2{stroke:#231f20;stroke-linecap:round;stroke-miterlimit:10}.cls-1{stroke-width:4.83px}.cls-2{fill:#231f20;stroke-width:4.11px}</style></defs><path class="cls-1" d="M125.16 145.92l3.28-9.53a2.85 2.85 0 0 1 4-1.75c9.54 5.25 39.73 23.76 44.25 50.15 0 0-27.24-7.83-24 1.31 1.64 4.68 4 7 5.88 8.23a1.67 1.67 0 0 1-.11 2.83c-4 2.2-9.56 6.05-2.94 8.06l9.58 2.89m171.42-59.22l-3.1-8.52a2.73 2.73 0 0 0-3.85-1.49c-9.24 4.94-38.48 22.26-43 46.12 0 0 26.32-7.64 23.16.66-1.61 4.25-3.89 6.43-5.72 7.55a1.44 1.44 0 0 0 .08 2.54c3.88 1.89 9.18 5.25 2.78 7.19l-9.26 2.82" transform="translate(-112.47 -111.11)"/><path class="cls-1" d="M151.63 246s-23.66.46-34.17-57.41c-8.33-45.79 5.7-63.49 11.92-68.88a6 6 0 0 1 5.89-1.1c8.82 3.16 34.85 17 61.82 74.74m67.91-1.7s47-82.37 71.83-77.95 11.56 75.22 11.56 75.22-4.6 32.6-30.5 50.81m-125.62-56.2s32.09-12.33 76.65 1.49" transform="translate(-112.47 -111.11)"/><path class="cls-1" d="M144.07 244.6s-7.49 17.59-6.7 29.48a1.58 1.58 0 0 0 2.13 1.31 21.74 21.74 0 0 0 6-3.21 1.21 1.21 0 0 1 2 1.15c-1.26 7.27-3.48 23-.06 27.52a13.93 13.93 0 0 0 7.3-1.79.6.6 0 0 1 .87.59c-.28 3.48.45 13.12 14.87 22.39m152.94-85.5s9 16.86 9.23 28.77a1.58 1.58 0 0 1-2 1.52 21.8 21.8 0 0 1-6.33-2.7 1.2 1.2 0 0 0-1.83 1.31c1.73 6.58 4.91 20.28 3 26.12a2 2 0 0 1-1.85 1.4 12.58 12.58 0 0 1-7.31-1.91m-10.48 30.44s14.33-5.78 15.67-27.81" transform="translate(-112.47 -111.11)"/><path class="cls-1" d="M147.49 273.33s15.4 24.65 28.65 21.32 13.52-15 24.26-20.33a123.93 123.93 0 0 1 14.51-5.91 13.73 13.73 0 0 0 9.09-10.72c10-60-14.52-77.19-14.52-77.19m46.19 2.33s-11.23 39.75 4.05 79.14c3.86 9.95 12.12 3.5 20.6 10.83 4.2 3.62 5.83 7 6.4 9.5a6.19 6.19 0 0 0 6.4 4.69c4.57-.27 10.31-2.07 12.54-8.95 3.94-12.18 16.85-13.87 16.85-13.87" transform="translate(-112.47 -111.11)"/><circle class="cls-2" cx="91.22" cy="136.76" r="7.35"/><circle class="cls-2" cx="165.76" cy="138.69" r="8.09"/><path d="M111.42 185.99c7.56 4.85 20.09-3.94 20.09-3.94s10.61 7.37 18.14 3.75" stroke-width="4.96" stroke="#231f20" stroke-linecap="round" stroke-miterlimit="10" fill="none"/><path d="M258.08 285.4c0 2.22-6.57 7.87-14.1 7.76s-13.21-6-13.18-8.17 6.17-3.93 13.7-3.81 13.61 2 13.58 4.22z" transform="translate(-112.47 -111.11)" fill="#231f20"/><rect class="cls-1" x="222.37" y="302.15" width="79.5" height="121.57" rx="3.11" transform="rotate(-49.06 84.16 430.612)"/><path class="cls-1" d="M243 303.05l16.93 53a12 12 0 0 0 9.3 8.15l52.37 9.46" transform="translate(-112.47 -111.11)"/><path class="cls-1" d="M79.2 242.02l56.87-6.41m29.31 25.18l3.49 58.62"/><path class="cls-1" d="M159.42 311.89s-14.89 9.74-23 56.2m179.96-56.6s23.25 20.26 24.47 51.44" transform="translate(-112.47 -111.11)"/></svg>