<svg xmlns="http://www.w3.org/2000/svg" viewBox="0 0 172.12 128.16"><defs><style>.cls-1,.cls-2{fill:none;stroke:#01dd9c;stroke-miterlimit:10;stroke-width:2px}.cls-2{stroke-linecap:round}.cls-3{fill:#01dd9c}</style></defs><g id="Layer_2" data-name="Layer 2"><g id="Layer_1-2" data-name="Layer 1"><path class="cls-1" d="M20.85 1h130.38a2.64 2.64 0 0 1 2.64 2.64v82.81H18.21V3.64A2.64 2.64 0 0 1 20.85 1zM1.08 119.75h170v4.83a2.55 2.55 0 0 1-2.55 2.55H3.55A2.55 2.55 0 0 1 1 124.61v-4.79a.08.08 0 0 1 .08-.08zm-.08 0l17.21-33.3m152.91 33.3l-17.25-33.3"/><path class="cls-2" d="M66.4 111.43h42.43m-73.06.02h8.52m6.26 0h8.52m56.97 0h8.52m6.26 0h8.52m-23.3-8.37h8.52m8.33 0h8.52m-59.29 0h8.52m8.32 0h8.52m-59.06 0h8.52m-24.42 0h8.52m24.23 0h8.52m33.79-8.33h8.52m8.33 0h8.52m6.8 0h8.51m-74.6 0h8.52m8.32 0h8.52m-59.06 0h8.52m-24.42 0h8.52m24.23 0h8.52"/><rect class="cls-1" x="24.44" y="7.26" width="123.44" height="72.94" rx="2.64"/><circle class="cls-2" cx="89.23" cy="41.04" r="3.92"/><path class="cls-2" d="M89.23 59.71s2.93.08 5.08 0a1.33 1.33 0 0 0 1.07-.6c1.43-2.2 4.33-6.45 4.33-18.1a29 29 0 0 0-10.18-22 .48.48 0 0 0-.6 0A29 29 0 0 0 78.74 41c0 11.65 2.9 15.9 4.34 18.1a1.32 1.32 0 0 0 1.07.6c2.15.09 5.08.01 5.08.01zM66.45 80.19s15.9-4.48 17.94-20.45m27.2 20.45s-15.9-4.48-17.94-20.45"/><path class="cls-2" d="M78.74 40.63L67.32 51a.87.87 0 0 0 .58 1.52H80m19.87-11.91L111.3 51a.87.87 0 0 1-.59 1.52H98.58"/><circle class="cls-3" cx="38.06" cy="58.24" r="1.2"/><circle class="cls-3" cx="114.11" cy="25.97" r="1.2"/><circle class="cls-3" cx="131.39" cy="34.32" r="1.2"/><circle class="cls-3" cx="123.05" cy="64.74" r="1.2"/><circle class="cls-3" cx="61.65" cy="23.57" r="1.2"/><circle class="cls-3" cx="50.37" cy="37.88" r="1.2"/><path class="cls-3" d="M42.72 26.12l2.28.7a.37.37 0 0 1 0 .71l-2.28.7a.36.36 0 0 0-.24.24l-.7 2.27a.37.37 0 0 1-.71 0l-.7-2.27a.36.36 0 0 0-.24-.24l-2.28-.7a.37.37 0 0 1 0-.71l2.28-.7a.4.4 0 0 0 .24-.25l.7-2.27a.37.37 0 0 1 .71 0l.7 2.27a.4.4 0 0 0 .24.25zm15.7 36.37l2.27.7a.36.36 0 0 1 0 .7l-2.27.71a.36.36 0 0 0-.25.24l-.7 2.27a.36.36 0 0 1-.7 0l-.7-2.27a.36.36 0 0 0-.25-.24l-2.27-.71a.36.36 0 0 1 0-.7l2.27-.7a.39.39 0 0 0 .25-.25l.7-2.27a.36.36 0 0 1 .7 0l.7 2.27a.39.39 0 0 0 .25.25zm78.1-12.44l2.27.7a.37.37 0 0 1 0 .71l-2.27.7a.39.39 0 0 0-.25.25l-.7 2.27a.36.36 0 0 1-.7 0l-.71-2.27a.36.36 0 0 0-.24-.25l-2.27-.7a.37.37 0 0 1 0-.71l2.27-.7a.34.34 0 0 0 .24-.24l.71-2.28a.37.37 0 0 1 .7 0l.7 2.28a.38.38 0 0 0 .25.24z"/></g></g></svg>