<svg width="486" height="863" viewBox="0 0 486 863" version="1.1" xmlns="http://www.w3.org/2000/svg"><g id="WWC-Teachout" stroke="none" stroke-width="1" fill="none" fill-rule="evenodd"><g id="Desktop-HD" transform="translate(-477 -80)"><g id="Group-2" transform="translate(477.824 80.5)"><path d="M88.805 187.125v456.033h353.182V187.125H88.805zm-7.476-7.476h368.134v470.985H81.33V179.65zm7.476 503.834v170.815h353.182V683.483H88.805zm-7.476-7.476h368.134v181.766a4 4 0 0 1-4 4H81.33V676.007zm7.476-629.112v110.1h353.182v-110.1H88.805zm-7.476-7.476h368.134V164.47H81.33V39.419z" id="Rectangle-Copy" fill="#FFF" fill-rule="nonzero"/><g id="Group" transform="translate(124.01 202.886)"><g id="Window-White" fill="#FFF"><path d="M4.48 4.545v27.728h34.04V4.545H4.48zM0 0h43v36.818H0V0z" id="Rectangle-4" fill-rule="nonzero"/><path d="M4.48 37.727v27.728h34.04V37.727H4.48zM0 33.182h43V70H0V33.182z" id="Rectangle-4-Copy" fill-rule="nonzero"/><path id="Rectangle-5" fill-rule="evenodd" d="M0 62.045h43V70H0z"/></g><g id="Window-White" transform="translate(79.743)" fill="#FFF"><path d="M4.48 4.545v27.728h34.04V4.545H4.48zM0 0h43v36.818H0V0z" id="Rectangle-4" fill-rule="nonzero"/><path d="M4.48 37.727v27.728h34.04V37.727H4.48zM0 33.182h43V70H0V33.182z" id="Rectangle-4-Copy" fill-rule="nonzero"/><path id="Rectangle-5" fill-rule="evenodd" d="M0 62.045h43V70H0z"/></g><g id="Window-White" transform="translate(159.26)" fill="#FFF"><path d="M4.48 4.545v27.728h34.04V4.545H4.48zM0 0h43v36.818H0V0z" id="Rectangle-4" fill-rule="nonzero"/><path d="M4.48 37.727v27.728h34.04V37.727H4.48zM0 33.182h43V70H0V33.182z" id="Rectangle-4-Copy" fill-rule="nonzero"/><path id="Rectangle-5" fill-rule="evenodd" d="M0 62.045h43V70H0z"/></g><g id="Window-White" transform="translate(239.004)" fill="#FFF"><path d="M4.48 4.545v27.728h34.04V4.545H4.48zM0 0h43v36.818H0V0z" id="Rectangle-4" fill-rule="nonzero"/><path d="M4.48 37.727v27.728h34.04V37.727H4.48zM0 33.182h43V70H0V33.182z" id="Rectangle-4-Copy" fill-rule="nonzero"/><path id="Rectangle-5" fill-rule="evenodd" d="M0 62.045h43V70H0z"/></g><g id="Window-Copy-8" transform="translate(0 109)" fill="#FFF"><path d="M4.48 4.545v27.728h34.04V4.545H4.48zM0 0h43v36.818H0V0z" id="Rectangle-4" fill-rule="nonzero"/><path d="M4.48 37.727v27.728h34.04V37.727H4.48zM0 33.182h43V70H0V33.182z" id="Rectangle-4-Copy" fill-rule="nonzero"/><path id="Rectangle-5" d="M0 62.045h43V70H0z"/></g><g id="Window-Copy-9" transform="translate(80 109)" fill="#FFF"><path d="M4.48 4.545v27.728h34.04V4.545H4.48zM0 0h43v36.818H0V0z" id="Rectangle-4" fill-rule="nonzero"/><path d="M4.48 37.727v27.728h34.04V37.727H4.48zM0 33.182h43V70H0V33.182z" id="Rectangle-4-Copy" fill-rule="nonzero"/><path id="Rectangle-5" d="M0 62.045h43V70H0z"/></g><g id="Window-White" transform="translate(159.26 108.515)" fill="#FFF"><path d="M4.48 4.545v27.728h34.04V4.545H4.48zM0 0h43v36.818H0V0z" id="Rectangle-4" fill-rule="nonzero"/><path d="M4.48 37.727v27.728h34.04V37.727H4.48zM0 33.182h43V70H0V33.182z" id="Rectangle-4-Copy" fill-rule="nonzero"/><path id="Rectangle-5" fill-rule="evenodd" d="M0 62.045h43V70H0z"/></g><g id="Window-White" transform="translate(239.004 108.515)" fill="#FFF"><path d="M4.48 4.545v27.728h34.04V4.545H4.48zM0 0h43v36.818H0V0z" id="Rectangle-4" fill-rule="nonzero"/><path d="M4.48 37.727v27.728h34.04V37.727H4.48zM0 33.182h43V70H0V33.182z" id="Rectangle-4-Copy" fill-rule="nonzero"/><path id="Rectangle-5" fill-rule="evenodd" d="M0 62.045h43V70H0z"/></g><path d="M4.48 286.045h34.04v-24.318H4.48v24.318zM43 260.818V294H0v-70h43v36.818zM4.48 228.545v27.728h34.04v-27.728H4.48zm80 57.5h34.04v-24.318H84.48v24.318zM123 260.818V294H80v-70h43v36.818zm-38.52-32.273v27.728h34.04v-27.728H84.48zm79 57.5h34.04v-24.318h-34.04v24.318zM202 260.818V294h-43v-70h43v36.818zm-38.52-32.273v27.728h34.04v-27.728h-34.04zm80 57.5h34.04v-24.318h-34.04v24.318zM282 260.818V294h-43v-70h43v36.818zm-38.52-32.273v27.728h34.04v-27.728h-34.04z" id="Combined-Shape" fill="#dda301" fill-rule="nonzero"/><g id="Window-White" transform="translate(0 317.388)" fill="#FFF"><path d="M4.48 7.013v42.78h34.04V7.012H4.48zM0 0h43v56.805H0V0z" id="Rectangle-4" fill-rule="nonzero"/><path d="M4.48 58.208v42.779h34.04v-42.78H4.48zM0 51.195h43V108H0V51.195z" id="Rectangle-4-Copy" fill-rule="nonzero"/><path id="Rectangle-5" fill-rule="evenodd" d="M0 95.727h43V108H0z"/></g><g id="Window-White" transform="translate(79.743 317.388)" fill="#FFF"><path d="M4.48 7.013v42.78h34.04V7.012H4.48zM0 0h43v56.805H0V0z" id="Rectangle-4" fill-rule="nonzero"/><path d="M4.48 58.208v42.779h34.04v-42.78H4.48zM0 51.195h43V108H0V51.195z" id="Rectangle-4-Copy" fill-rule="nonzero"/><path id="Rectangle-5" fill-rule="evenodd" d="M0 95.727h43V108H0z"/></g><g id="Window-White" transform="translate(159.26 317.388)" fill="#FFF"><path d="M4.48 7.013v42.78h34.04V7.012H4.48zM0 0h43v56.805H0V0z" id="Rectangle-4" fill-rule="nonzero"/><path d="M4.48 58.208v42.779h34.04v-42.78H4.48zM0 51.195h43V108H0V51.195z" id="Rectangle-4-Copy" fill-rule="nonzero"/><path id="Rectangle-5" fill-rule="evenodd" d="M0 95.727h43V108H0z"/></g><g id="Window-White" transform="translate(239.004 317.388)" fill="#FFF"><path d="M4.48 7.013v42.78h34.04V7.012H4.48zM0 0h43v56.805H0V0z" id="Rectangle-4" fill-rule="nonzero"/><path d="M4.48 58.208v42.779h34.04v-42.78H4.48zM0 51.195h43V108H0V51.195z" id="Rectangle-4-Copy" fill-rule="nonzero"/><path id="Rectangle-5" fill-rule="evenodd" d="M0 95.727h43V108H0z"/></g><path id="Rectangle-15" fill="#FFF" d="M2.039 1.133h39.645V34.66H2.04z"/><path id="Rectangle-15-Copy" fill="#FFF" d="M241.855 108.515H281.5v33.529h-39.645z"/><path id="Rectangle-15-Copy-2" fill="#dda301" d="M81.669 227.114h39.645v33.529H81.669z"/></g><g id="Window-White" transform="translate(124.01 69.523)" fill="#FFF"><path d="M4.48 4.545v27.728h34.04V4.545H4.48zM0 0h43v36.818H0V0z" id="Rectangle-4" fill-rule="nonzero"/><path d="M4.48 37.727v27.728h34.04V37.727H4.48zM0 33.182h43V70H0V33.182z" id="Rectangle-4-Copy" fill-rule="nonzero"/><path id="Rectangle-5" fill-rule="evenodd" d="M0 62.045h43V70H0z"/></g><g id="Window-White" transform="translate(203.753 69.523)" fill="#FFF"><path d="M4.48 4.545v27.728h34.04V4.545H4.48zM0 0h43v36.818H0V0z" id="Rectangle-4" fill-rule="nonzero"/><path d="M4.48 37.727v27.728h34.04V37.727H4.48zM0 33.182h43V70H0V33.182z" id="Rectangle-4-Copy" fill-rule="nonzero"/><path id="Rectangle-5" fill-rule="evenodd" d="M0 62.045h43V70H0z"/></g><g id="Window-White" transform="translate(283.27 69.523)" fill="#FFF"><path d="M4.48 4.545v27.728h34.04V4.545H4.48zM0 0h43v36.818H0V0z" id="Rectangle-4" fill-rule="nonzero"/><path d="M4.48 37.727v27.728h34.04V37.727H4.48zM0 33.182h43V70H0V33.182z" id="Rectangle-4-Copy" fill-rule="nonzero"/><path id="Rectangle-5" fill-rule="evenodd" d="M0 62.045h43V70H0z"/></g><g id="Window-White" transform="translate(363.014 69.523)" fill="#FFF"><path d="M4.48 4.545v27.728h34.04V4.545H4.48zM0 0h43v36.818H0V0z" id="Rectangle-4" fill-rule="nonzero"/><path d="M4.48 37.727v27.728h34.04V37.727H4.48zM0 33.182h43V70H0V33.182z" id="Rectangle-4-Copy" fill-rule="nonzero"/><path id="Rectangle-5" fill-rule="evenodd" d="M0 62.045h43V70H0z"/></g><path d="M31.49 804.684v49.84h49.16v-49.84H31.49zm-7.476-7.476h64.112V862H24.014v-64.792z" id="Rectangle-3-Copy-4" fill="#FFF" fill-rule="nonzero"/><path d="M9.062 775.687v21.068h72.494v-21.068H9.062zm-6.57-7.476h85.634v36.02H2.492v-36.02z" id="Rectangle-3-Copy-3" fill="#FFF" fill-rule="nonzero"/><path d="M52.785 6.117v11.78h425.45V6.117H52.784zM50.668 0h429.683a4 4 0 0 1 4 4v16.014a4 4 0 0 1-4 4H50.668a4 4 0 0 1-4-4V4a4 4 0 0 1 4-4z" id="Rectangle-2" fill="#FFF" fill-rule="nonzero"/><path d="M63.468 23.334l27.256 22.881h349.57l27.257-22.881H63.468zm-16.8-6.117h437.683l-41.83 35.115H88.498l-41.83-35.115z" id="Rectangle-2-Copy" fill="#FFF" fill-rule="nonzero"/><path d="M7.476 775.687v21.068h21.748v-21.068H7.476zM4 768.21h32.7v36.02H4a4 4 0 0 1-4-4v-28.02a4 4 0 0 1 4-4z" id="Rectangle-3-Copy" fill="#FFF" fill-rule="nonzero"/><path d="M11.554 804.684v49.84h13.592v-49.84H11.554zm-7.476-7.476h28.544V862H8.078a4 4 0 0 1-4-4v-60.792z" id="Rectangle-3-Copy-2" fill="#FFF" fill-rule="nonzero"/><path d="M113.952 730.604h26.958v-28.318h-26.958v28.318zm.601-31.716h29.756v35.115h-33.756v-31.115a4 4 0 0 1 4-4z" id="Rectangle-5" fill="#FFF" fill-rule="nonzero"/><path d="M113.952 808.762h26.958v-74.76h-26.958v74.76zm-3.399-78.158h33.756v81.556h-29.756a4 4 0 0 1-4-4v-77.556z" id="Rectangle-5-Copy-9" fill="#FFF" fill-rule="nonzero"/><path d="M144.309 730.604h26.958v-28.318H144.31v28.318zm-3.399-31.716h29.755a4 4 0 0 1 4 4v31.115H140.91v-35.115z" id="Rectangle-5-Copy-8" fill="#FFF" fill-rule="nonzero"/><path d="M144.309 808.762h26.958v-74.76H144.31v74.76zm-3.399-78.158h33.755v77.556a4 4 0 0 1-4 4H140.91v-81.556z" id="Rectangle-5-Copy-10" fill="#FFF" fill-rule="nonzero"/><path d="M337.777 702.286v17.897h97.414v-17.897h-97.414zm.602-3.398h96.21a4 4 0 0 1 4 4v16.694a4 4 0 0 1-4 4h-96.21a4 4 0 0 1-4-4v-16.694a4 4 0 0 1 4-4z" id="Rectangle-7" fill="#FFF" fill-rule="nonzero"/><path d="M357.768 707.838H354.9v7.907h-1.332v-7.907h-2.879v-1.12h7.078v1.12zm7.425 6.82l-.006 1.087h-5.595v-9.026h5.595v1.087h-4.25v2.86h3.42v1.05h-3.42v2.941h4.256zm6.973-2.276l-1.34-3.501a7.804 7.804 0 0 1-.288-.905c-.047.18-.094.348-.142.503a7.228 7.228 0 0 1-.141.415l-1.333 3.488h3.244zm2.646 3.363h-1.031a.457.457 0 0 1-.453-.314l-.798-2.094h-3.979l-.798 2.094a.51.51 0 0 1-.163.216.443.443 0 0 1-.29.098h-1.03l3.595-9.026h1.351l3.596 9.026zm7.708-1.936c.075 0 .14.03.195.088l.528.578a3.772 3.772 0 0 1-1.349 1.012c-.53.239-1.168.358-1.914.358a4.48 4.48 0 0 1-1.775-.34 3.911 3.911 0 0 1-1.358-.948 4.27 4.27 0 0 1-.87-1.458 5.436 5.436 0 0 1-.308-1.867c0-.679.108-1.301.323-1.867a4.286 4.286 0 0 1 .909-1.458c.39-.407.855-.723 1.398-.95a4.635 4.635 0 0 1 1.8-.339c.642 0 1.212.105 1.71.315.5.21.933.488 1.302.836l-.44.622a.378.378 0 0 1-.11.113.306.306 0 0 1-.173.044c-.08 0-.173-.04-.28-.12a4.11 4.11 0 0 0-.421-.267 3.32 3.32 0 0 0-.644-.267 3.259 3.259 0 0 0-.956-.12c-.448 0-.859.08-1.232.237a2.727 2.727 0 0 0-.964.678 3.08 3.08 0 0 0-.629 1.088 4.43 4.43 0 0 0-.223 1.455c0 .549.077 1.037.232 1.464.155.428.37.79.642 1.088.272.297.592.524.961.679a3.05 3.05 0 0 0 1.194.232c.26 0 .494-.016.701-.047a3.03 3.03 0 0 0 .572-.141c.174-.063.339-.144.494-.242a3.3 3.3 0 0 0 .459-.356.505.505 0 0 1 .106-.072.264.264 0 0 1 .12-.028zm9.99-7.09v9.026h-1.34v-4.067h-4.707v4.067h-1.345v-9.026h1.345v3.985h4.708v-3.985h1.339zm11.165 4.513c0 .674-.108 1.294-.324 1.857a4.277 4.277 0 0 1-.915 1.458 4.119 4.119 0 0 1-1.414.953 4.756 4.756 0 0 1-1.829.34 4.763 4.763 0 0 1-1.826-.34 4.08 4.08 0 0 1-1.414-.953 4.341 4.341 0 0 1-.915-1.458 5.11 5.11 0 0 1-.326-1.857c0-.67.108-1.289.326-1.854a4.335 4.335 0 0 1 .915-1.462 4.116 4.116 0 0 1 1.414-.955 4.725 4.725 0 0 1 1.826-.343c.67 0 1.28.114 1.83.343.548.228 1.02.547 1.413.955.394.409.7.896.915 1.462a5.15 5.15 0 0 1 .324 1.854zm-1.37 0c0-.537-.074-1.018-.22-1.446a3.08 3.08 0 0 0-.626-1.087 2.71 2.71 0 0 0-.98-.685 3.322 3.322 0 0 0-1.286-.24c-.473 0-.902.08-1.285.24a2.74 2.74 0 0 0-.984.685c-.272.297-.482.66-.629 1.087-.146.428-.22.91-.22 1.446 0 .54.074 1.023.22 1.449.147.425.357.786.629 1.084.272.297.6.525.984.682a3.36 3.36 0 0 0 1.285.236 3.36 3.36 0 0 0 1.285-.236c.384-.157.71-.385.981-.682.27-.298.479-.66.625-1.084a4.43 4.43 0 0 0 .22-1.45zm7.091 3.438c.36 0 .684-.06.968-.182.285-.122.526-.293.723-.513.197-.22.348-.481.453-.785.105-.304.157-.64.157-1.01v-5.461h1.332v5.462a4.15 4.15 0 0 1-.25 1.464 3.346 3.346 0 0 1-.724 1.163 3.31 3.31 0 0 1-1.144.767 3.95 3.95 0 0 1-1.515.277 3.95 3.95 0 0 1-1.514-.277 3.31 3.31 0 0 1-1.144-.767 3.346 3.346 0 0 1-.723-1.163 4.15 4.15 0 0 1-.252-1.464v-5.462h1.34v5.456c0 .368.05.706.153 1.012.103.305.253.568.45.788.197.22.438.391.723.513.284.121.607.182.967.182zm12.429-6.832h-2.866v7.907h-1.333v-7.907h-2.878v-1.12h7.077v1.12z" id="TEACHOUT" fill="#FFF"/><path d="M197.546 702.286v28.318h38.9v-28.318h-38.9zm.602-3.398h41.696v35.115h-45.696v-31.115a4 4 0 0 1 4-4z" id="Rectangle-5-Copy-2" fill="#FFF" fill-rule="nonzero"/><path d="M197.546 808.762h38.9v-74.76h-38.9v74.76zm-3.398-78.158h45.696v81.556h-41.696a4 4 0 0 1-4-4v-77.556z" id="Rectangle-5-Copy-5" fill="#FFF" fill-rule="nonzero"/><path d="M280.98 702.286v28.318h38.9v-28.318h-38.9zm-3.398-3.398h41.696a4 4 0 0 1 4 4v31.115h-45.696v-35.115z" id="Rectangle-5-Copy-3" fill="#FFF" fill-rule="nonzero"/><path d="M280.98 808.762h38.9v-74.76h-38.9v74.76zm-3.398-78.158h45.696v77.556a4 4 0 0 1-4 4h-41.696v-81.556z" id="Rectangle-5-Copy-6" fill="#FFF" fill-rule="nonzero"/><path d="M239.135 730.604h38.9v-28.318h-38.9v28.318zm-3.398-31.716h45.696v35.115h-45.696v-35.115z" id="Rectangle-5-Copy-4" fill="#FFF" fill-rule="nonzero"/><path d="M239.135 734.003v74.76h38.9v-74.76h-38.9zm-3.398-3.399h45.696v81.556h-45.696v-81.556z" id="Rectangle-5-Copy-7" fill="#FFF" fill-rule="nonzero"/><path d="M301.304 794.716c-7.883 0-14.273-6.39-14.273-14.272 0-7.882 6.39-14.272 14.273-14.272 7.882 0 14.272 6.39 14.272 14.272 0 7.883-6.39 14.272-14.272 14.272zm0-2.265c6.63 0 12.006-5.376 12.006-12.007 0-6.631-5.375-12.007-12.006-12.007-6.632 0-12.007 5.376-12.007 12.007 0 6.631 5.375 12.007 12.007 12.007z" id="Oval" fill="#FFF" fill-rule="nonzero"/><path id="Path-3" fill="#FFF" fill-rule="nonzero" d="M295.39 779.684l-1.766-1.417 4.977-6.203 4.98 6.208-1.767 1.417-3.213-4.005z"/><path id="Path-3-Copy" fill="#FFF" fill-rule="nonzero" transform="rotate(-180 303.796 784.033)" d="M300.584 787.84l-1.767-1.418 4.977-6.202 4.98 6.207-1.767 1.418-3.213-4.005z"/><path d="M344.8 735.815v19.936h83.368v-19.936H344.8zm-3.398-3.398h90.164v26.732h-90.164v-26.732z" id="Rectangle-7-Copy" fill="#FFF" fill-rule="nonzero"/><path d="M344.8 854.071h41.231v-94.469H344.8v94.469zm-3.398-97.867h48.027v101.265h-48.027V756.204z" id="Rectangle-7-Copy-2" fill="#FFF" fill-rule="nonzero"/><path d="M386.937 854.071h41.231v-94.469h-41.23v94.469zm-3.398-97.867h48.027v101.265H383.54V756.204z" id="Rectangle-7-Copy-3" fill="#FFF" fill-rule="nonzero"/><path d="M352.842 840.931h22.202v-72.494h-22.202v72.494zm.602-75.892h20.998a4 4 0 0 1 4 4v71.29a4 4 0 0 1-4 4h-20.998a4 4 0 0 1-4-4v-71.29a4 4 0 0 1 4-4z" id="Rectangle-9" fill="#FFF" fill-rule="nonzero"/><path d="M397.6 840.931h22.202v-72.494H397.6v72.494zm.602-75.892H419.2a4 4 0 0 1 4 4v71.29a4 4 0 0 1-4 4h-20.998a4 4 0 0 1-4-4v-71.29a4 4 0 0 1 4-4z" id="Rectangle-9-Copy" fill="#FFF" fill-rule="nonzero"/><path id="Path-4" fill="#FFF" fill-rule="nonzero" d="M352.842 732.54h3.398v26.488h-3.398z"/><path id="Path-4-Copy" fill="#FFF" fill-rule="nonzero" d="M365.529 732.54h3.398v26.488h-3.398z"/><path id="Path-4-Copy-2" fill="#FFF" fill-rule="nonzero" d="M378.442 732.54h3.398v26.488h-3.398z"/><path id="Path-4-Copy-3" fill="#FFF" fill-rule="nonzero" d="M391.128 732.54h3.398v26.488h-3.398z"/><path id="Path-4-Copy-4" fill="#FFF" fill-rule="nonzero" d="M404.041 732.54h3.398v26.488h-3.398z"/><path id="Path-4-Copy-5" fill="#FFF" fill-rule="nonzero" d="M416.728 732.54h3.398v26.488h-3.398z"/><path id="Path-7" fill="#FFF" fill-rule="nonzero" d="M357.028 799.166l-1.122-1.121 3.436-3.436 1.122 1.121z"/><path id="Path-7-Copy" fill="#FFF" fill-rule="nonzero" d="M361.559 794.635l-1.122-1.121 8.314-8.314 1.122 1.121z"/><path id="Path-7-Copy-2" fill="#FFF" fill-rule="nonzero" d="M362.238 801.205l-1.121-1.121 10.214-10.215 1.121 1.122z"/><path id="Path-7" fill="#FFF" fill-rule="nonzero" d="M401.56 799.166l-1.122-1.121 3.436-3.436 1.12 1.121z"/><path id="Path-7-Copy" fill="#FFF" fill-rule="nonzero" d="M406.09 794.635l-1.121-1.121 8.314-8.314 1.121 1.121z"/><path id="Path-7-Copy-2" fill="#FFF" fill-rule="nonzero" d="M406.77 801.205l-1.122-1.121 10.214-10.215 1.122 1.122z"/><path d="M68.53 164.471l12.686 14.499H449.35l8.156-14.499H68.53zm-4.665-6.117h397.26a4 4 0 0 1 3.487 5.961l-10.537 18.733a4 4 0 0 1-3.487 2.038H80.256a4 4 0 0 1-3.01-1.366l-16.391-18.732a4 4 0 0 1 3.01-6.634z" id="Rectangle-6" fill="#FFF" fill-rule="nonzero"/><path id="Rectangle-12" fill="#FFF" d="M88.805 46.895h353.182v6.796H88.805z"/><path d="M77.478 651.767v24.24h371.985v-24.24H77.478zm-2.492-5.89h376.97a3.398 3.398 0 0 1 3.397 3.398V678.5a3.398 3.398 0 0 1-3.398 3.399H74.986a3.398 3.398 0 0 1-3.398-3.399v-29.224a3.398 3.398 0 0 1 3.398-3.398z" id="Rectangle-3" fill="#FFF" fill-rule="nonzero"/></g></g></g></svg>